<svg width="400" height="400" xmlns="http://www.w3.org/2000/svg">
 <!-- Created with Method Draw - http://github.com/duopixel/Method-Draw/ -->
 <g>
  <title>background</title>
  <rect fill="none" id="canvas_background" height="402" width="402" y="-1" x="-1"/>
  <g display="none" overflow="visible" y="0" x="0" height="100%" width="100%" id="canvasGrid">
   <rect fill="url(#gridpattern)" stroke-width="0" y="0" x="0" height="100%" width="100%"/>
  </g>
 </g>
 <g>
  <title>Layer 1</title>
  <ellipse stroke="#000" ry="155.00001" rx="155.00001" id="svg_1" cy="200.00001" cx="200.00001" stroke-width="0" fill="#c9c976"/>
  <ellipse ry="120.5" rx="120.5" id="svg_3" cy="200" cx="200" stroke-opacity="null" stroke-width="0" stroke="#000" fill="#ffffff"/>
  <path id="svg_6" d="m123.385,165.05665l43.54444,0l13.45557,-41.63441l13.45557,41.63441l43.54443,0l-35.22813,25.73119l13.45626,41.63441l-35.22814,-25.73189l-35.22813,25.73189l13.45627,-41.63441l-35.22814,-25.73119z" stroke-opacity="null" stroke-width="0" stroke="#000" fill="#ffffff"/>
  <path stroke="#000" id="svg_8" d="m99.99999,169.88756l76.39375,0l23.60626,-78.03039l23.60627,78.03039l76.39374,0l-61.80373,48.22488l23.60748,78.03039l-61.80376,-48.2262l-61.80374,48.2262l23.60748,-78.03039l-61.80375,-48.22488z" stroke-opacity="null" stroke-width="0" fill="#ffaa56"/>
  <text stroke="#000" transform="matrix(2.295691403385198,0,0,2.295691403385198,-40.78880238020139,53.30938048537993) " xml:space="preserve" text-anchor="start" font-family="Arvo, sans-serif" font-size="24" id="svg_9" y="71.65286" x="87.92149" stroke-opacity="null" stroke-width="0" fill="#000000">DC</text>
 </g>
</svg>